<svg xmlns="http://www.w3.org/2000/svg" viewBox="0 0 512 512">
  <g>
    <path d="M256,64C150.13,64,64,150.13,64,256s86.13,192,192,192,192-86.13,192-192S361.87,64,256,64Zm0,352a160,160,0,1,1,160-160A160.18,160.18,0,0,1,256,416Z" fill="#9b59b6"/>
    <path d="M256,160a96,96,0,1,0,96,96A96.11,96.11,0,0,0,256,160Zm0,160a64,64,0,1,1,64-64A64.07,64.07,0,0,1,256,320Z" fill="#8e44ad"/>
    <path d="M200,232h32v32H200Zm80,0h32v32H280Z" fill="#f1c40f"/>
    <path d="M200,296h112v32H200Z" fill="#f1c40f"/>
  </g>
</svg>